<svg viewBox="0 0 64 64" xml:space="preserve" xmlns="http://www.w3.org/2000/svg" enable-background="new 0 0 64 64"><path d="M50.522 60.004H13.478c-5.502 0-9.978-4.476-9.978-9.978V23.597c0-5.502 4.476-9.978 9.978-9.978h37.044c5.502 0 9.978 4.476 9.978 9.978v26.429c0 5.502-4.476 9.978-9.978 9.978zM13.478 19.429a4.173 4.173 0 0 0-4.168 4.168v26.429a4.173 4.173 0 0 0 4.168 4.168h37.044a4.173 4.173 0 0 0 4.168-4.168V23.597a4.173 4.173 0 0 0-4.168-4.168H13.478z" fill="#45d73d" class="fill-515151"></path><path d="M57.4 34.525H6.405a2.905 2.905 0 0 1 0-5.81H57.4a2.905 2.905 0 0 1 0 5.81zM39.714 19.429a2.905 2.905 0 0 1-2.905-2.905V9.806h-9.972v6.718a2.905 2.905 0 0 1-5.81 0V9.775a5.786 5.786 0 0 1 5.779-5.779H36.84a5.786 5.786 0 0 1 5.779 5.779v6.749a2.905 2.905 0 0 1-2.905 2.905z" fill="#45d73d" class="fill-515151"></path><path d="M43.395 39.717a2.905 2.905 0 0 1-2.905-2.905V31.62a2.905 2.905 0 0 1 5.81 0v5.191a2.906 2.906 0 0 1-2.905 2.906zM20.687 39.717a2.905 2.905 0 0 1-2.905-2.905V31.62a2.905 2.905 0 0 1 5.81 0v5.191a2.906 2.906 0 0 1-2.905 2.906z" fill="#45d73d" class="fill-515151"></path></svg>