<?xml version="1.0" encoding="utf-8"?><svg viewBox="0 0 512 512" xmlns="http://www.w3.org/2000/svg" xmlns:xlink="http://www.w3.org/1999/xlink"><style>:root>svg{display:none}:root>svg:target{display:block}</style><svg viewBox="0 0 502.664 502.664" xml:space="preserve" id="icon" xmlns="http://www.w3.org/2000/svg"><path d="M153.821 358.226 0 274.337v-46.463l153.821-83.414v54.574L46.636 250.523l107.185 53.431v54.272zm26.273 29.358L282.103 115.08h32.227L212.084 387.584h-31.99zm168.749-29.358v-54.272l107.164-52.999-107.164-52.59v-53.927l153.821 83.522v46.183l-153.821 84.083z"/></svg><svg viewBox="0 0 24 24" id="icon__about" xmlns="http://www.w3.org/2000/svg"><path d="M5 11a1 1 0 0 0 1-1V6a1 1 0 0 0-2 0v4a1 1 0 0 0 1 1Zm-.71-7.29a1 1 0 0 0 1.09.21 1.15 1.15 0 0 0 .33-.21 1.15 1.15 0 0 0 .21-.33A.84.84 0 0 0 6 3a1 1 0 0 0-.29-.71 1 1 0 0 0-1.09-.21 1 1 0 0 0-.33.21A1 1 0 0 0 4 3a1 1 0 0 0 .08.38 1.15 1.15 0 0 0 .21.33ZM17 6H9a1 1 0 0 0 0 2h8a1 1 0 0 1 1 1v9.72l-1.57-1.45a1 1 0 0 0-.68-.27H7a1 1 0 0 1-1-1v-2a1 1 0 0 0-2 0v2a3 3 0 0 0 3 3h8.36l3 2.73A1 1 0 0 0 19 22a1.1 1.1 0 0 0 .4-.08A1 1 0 0 0 20 21V9a3 3 0 0 0-3-3Z" class="bfill-6563ff"/></svg><svg data-name="Layer 1" viewBox="0 0 200 200" id="icon__arrow" xmlns="http://www.w3.org/2000/svg"><path d="m132.72 78.75-56.5-56.5a9.67 9.67 0 0 0-14 0 9.67 9.67 0 0 0 0 14l56.5 56.5a9.67 9.67 0 0 1 0 14l-57 57a9.9 9.9 0 0 0 14 14l56.5-56.5c12-12 12-31 .5-42.5Z"/></svg><svg viewBox="0 0 24 24" id="icon__avatar" xmlns="http://www.w3.org/2000/svg"><circle cx="12" cy="8" r="4" class="dfill-464646"/><path d="M20 19v1a1 1 0 0 1-1 1H5a1 1 0 0 1-1-1v-1a6 6 0 0 1 6-6h4a6 6 0 0 1 6 6Z" class="dfill-464646"/></svg><svg xml:space="preserve" viewBox="0 0 32 32" id="icon__check" xmlns="http://www.w3.org/2000/svg"><path d="m30.171 6.131-.858-.858a2.433 2.433 0 0 0-3.433 0L11.294 19.859l-5.175-5.174a2.433 2.433 0 0 0-3.432.001l-.858.857a2.437 2.437 0 0 0 0 3.433l7.744 7.75a2.433 2.433 0 0 0 3.433 0L30.171 9.564a2.44 2.44 0 0 0 0-3.433z"/></svg><svg viewBox="0 0 24 24" id="icon__expand" xmlns="http://www.w3.org/2000/svg"><path d="M14.807 9.249a.75.75 0 0 0-1.059-.056l-2.5 2.25a.75.75 0 0 0 0 1.114l2.5 2.25a.75.75 0 0 0 1.004-1.115l-1.048-.942h3.546a.75.75 0 1 0 0-1.5h-3.546l1.048-.942a.75.75 0 0 0 .055-1.059ZM2 17.251A2.75 2.75 0 0 0 4.75 20h14.5A2.75 2.75 0 0 0 22 17.25V6.75A2.75 2.75 0 0 0 19.25 4H4.75A2.75 2.75 0 0 0 2 6.75v10.5Zm2.75 1.25c-.69 0-1.25-.56-1.25-1.25V6.749c0-.69.56-1.25 1.25-1.25h3.254V18.5H4.75Zm4.754 0V5.5h9.746c.69 0 1.25.56 1.25 1.25v10.5c0 .69-.56 1.25-1.25 1.25H9.504Z" class="ffill-212121"/></svg><svg viewBox="0 0 512 512" id="icon__experience" xmlns="http://www.w3.org/2000/svg"><path d="M256 0c141.4 0 256 114.6 256 256S397.4 512 256 512c-54.3 0-104.8-17-146.3-45.9-14.5-11-18.06-30.1-7.9-44.6 10.1-14.5 30-18 44.5-7.9C177.4 435.3 215.2 448 256 448c106 0 192-86 192-192 0-106.9-86-192-192-192-53.9 0-101 21.46-135.8 56.2L151 151c15.1 15.1 4.4 41-16.9 41H24c-13.25 0-24-10.7-24-24V57.94c0-21.38 25.85-32.09 40.97-16.97l34.01 34.01C121.3 28.69 185.3 0 255.1 0h.9zm0 128c13.3 0 24 10.7 24 24v94.1l64.1 64.9c10.2 9.4 10.2 24.6 0 33.1-8.5 10.2-23.7 10.2-33.1 0l-72-72c-4.5-3.6-7-9.7-7-16.1V152c0-13.3 10.7-24 24-24z" class="gfill-000000"/></svg><svg data-name="Layer 2" viewBox="0 0 32 32" id="icon__home" xmlns="http://www.w3.org/2000/svg"><path d="M30 15a1 1 0 0 1-.58-.19L16 5.23 2.58 14.81a1 1 0 0 1-1.16-1.62l14-10a1 1 0 0 1 1.16 0l14 10A1 1 0 0 1 30 15ZM5 9a1 1 0 0 1-1-1V4a1 1 0 0 1 1-1h4a1 1 0 0 1 0 2H6v3a1 1 0 0 1-1 1Z" class="hfill-101820"/><path d="M25 29h-5a1 1 0 0 1-1-1v-7h-6v7a1 1 0 0 1-1 1H7a3 3 0 0 1-3-3V16a1 1 0 0 1 2 0v10a1 1 0 0 0 1 1h4v-7a1 1 0 0 1 1-1h8a1 1 0 0 1 1 1v7h4a1 1 0 0 0 1-1V16a1 1 0 0 1 2 0v10a3 3 0 0 1-3 3Z" class="hfill-101820"/></svg><svg viewBox="0 0 24 24" xml:space="preserve" id="icon__mail" xmlns="http://www.w3.org/2000/svg"><path d="M20 3H4C1.8 3 0 4.8 0 7v10c0 2.2 1.8 4 4 4h16c2.2 0 4-1.8 4-4V7c0-2.2-1.8-4-4-4zm1.6 5.8-7.9 5.3c-.5.3-1.1.5-1.7.5s-1.2-.2-1.7-.5L2.4 8.8c-.4-.3-.5-.9-.2-1.4.3-.4.9-.5 1.4-.2l7.9 5.3c.3.2.8.2 1.1 0l7.9-5.3c.5-.3 1.1-.2 1.4.3.2.4.1 1-.3 1.3z" class="ifill-000000"/></svg><svg viewBox="0 0 64 64" xml:space="preserve" id="icon__portfolio" xmlns="http://www.w3.org/2000/svg"><path d="M50.522 60.004H13.478c-5.502 0-9.978-4.476-9.978-9.978V23.597c0-5.502 4.476-9.978 9.978-9.978h37.044c5.502 0 9.978 4.476 9.978 9.978v26.429c0 5.502-4.476 9.978-9.978 9.978zM13.478 19.429a4.173 4.173 0 0 0-4.168 4.168v26.429a4.173 4.173 0 0 0 4.168 4.168h37.044a4.173 4.173 0 0 0 4.168-4.168V23.597a4.173 4.173 0 0 0-4.168-4.168H13.478z" class="jfill-515151"/><path d="M57.4 34.525H6.405a2.905 2.905 0 0 1 0-5.81H57.4a2.905 2.905 0 0 1 0 5.81zM39.714 19.429a2.905 2.905 0 0 1-2.905-2.905V9.806h-9.972v6.718a2.905 2.905 0 0 1-5.81 0V9.775a5.786 5.786 0 0 1 5.779-5.779H36.84a5.786 5.786 0 0 1 5.779 5.779v6.749a2.905 2.905 0 0 1-2.905 2.905z" class="jfill-515151"/><path d="M43.395 39.717a2.905 2.905 0 0 1-2.905-2.905V31.62a2.905 2.905 0 0 1 5.81 0v5.191a2.906 2.906 0 0 1-2.905 2.906zm-22.708 0a2.905 2.905 0 0 1-2.905-2.905V31.62a2.905 2.905 0 0 1 5.81 0v5.191a2.906 2.906 0 0 1-2.905 2.906z" class="jfill-515151"/></svg><svg data-name="Layer 1" viewBox="0 0 32 32" id="icon__rub" xmlns="http://www.w3.org/2000/svg"><path d="M27 9.84C26.6 5 23.71 2.15 19 2h-8a2 2 0 0 0-2 2v11H7a2 2 0 0 0 0 4h2v2H7a2 2 0 0 0 0 4h2v3a2 2 0 0 0 4 0v-9h6.07c4.67-.15 7.71-3.18 7.93-8V9.84ZM19 15h-6V6h5.93c2.57.08 3.82 1.35 4.07 4.09v.82c-.12 2.67-1.45 4.01-4 4.09Z" class="kfill-ba63c6"/><path d="M21 21h-5a2 2 0 0 0 0 4h5a2 2 0 0 0 0-4Z" class="kfill-ba63c6"/></svg><svg viewBox="0 0 512 512" xml:space="preserve" id="socials__gh" xmlns="http://www.w3.org/2000/svg"><path d="M309.4 415.9c2.1 1.8 1.3 4.3 1.3 6.5v88.7c0 .6.2 1.3.2 1.9h-106c.4-17.4.4-34.9 0-52.3 3.2.1 1.7 2.6 1.7 3.9.1 14 .2 28 0 41.9-.1 4 1.2 5.1 5.1 5.1 30.8-.1 61.6-.2 92.4 0 4.4 0 5.1-1.5 5.1-5.4-.2-25.3-.1-50.6-.1-75.9.1-4.8.3-9.6.3-14.4z" class="lfill-989393"/><path d="M309.4 415.9c-.1 4.8-.2 9.6-.2 14.4 0 25.3-.1 50.6.1 75.9 0 3.9-.7 5.5-5.1 5.4-30.8-.2-61.6-.2-92.4 0-3.9 0-5.2-1.1-5.1-5.1.2-14 .1-28 0-41.9 0-1.3 1.6-3.8-1.7-3.9-.7 0-1.3.1-2 .1-1.3-.6-2.5-.5-3.3.9-12.4 1.3-24.9 2.3-37.2-.8-21.8-5.5-37.4-18.4-47-38.9-6.2-13.4-14.4-25.8-23.9-37.2-3-3.6-7.8-5-11-8.6-1.2-1.4-3.2-2.5-2.6-4.4.6-2.3 3.1-2.2 5.1-2.4 20-1.7 34.2 7.8 44.1 24.2 9.1 15 21 26.1 38.2 30.6 12.2 3.2 24.4 2.5 36.4-1.2 2.8-.9 4.3-2.1 4.6-5.5.9-12.4 3.5-24.4 12.1-34.9-3.3-.6-5.9-1.2-8.6-1.6-21.2-3.2-40.9-10.5-58-23.6-19.1-14.6-31-34.1-34.7-58-3.2-20.9-2-41.9.7-62.8 2.1-16.1 6.6-31.4 18.2-43.4 4.1-4.2 4.4-7.6 2.6-12.9-6.1-17.8-4.4-35.7 1.1-53.5 1-3.3 2.5-4.3 6.1-3.4 13.5 3.3 23.9 11.2 33.3 20.8 4.6 4.6 8.5 9.8 12.3 15 1.1 1.5 1.9 2.3 3.8.8 7.2-5.7 15.9-7.5 24.6-8.8 25.2-3.6 50.5-3.7 75.7-.1 8.4 1.2 16.9 2.7 23.9 8 3.3 2.5 4.6 1.1 6.4-1.5 6.7-9.8 14.9-18.2 24.5-25.1 6.1-4.4 12.9-7.4 20.3-9.2 3.2-.8 4.5.1 5.5 3 6.8 19.2 7.8 38.4.2 57.6-.9 2.4-1.5 4.1.7 6.2 12.3 11.6 18.1 26.4 20.5 42.7 2.9 19.8 4.6 39.7 2.3 59.8-3.8 33.8-21 58.4-50.8 74.5-1.1-.1-2 .2-2.4 1.3-.8.4-1.6.8-2.3 1.1-2.6.1-4.8 1.2-6.6 2.9-.8.3-1.7.5-2.5.8-1.2-.3-2 .2-2.5 1.2-.5.1-1.1.3-1.6.4-4 .6-8 1.1-11.4 3.5-.5.1-1.1.2-1.6.3-2.9-.1-5.8.1-8.3 1.9-2.2.3-4.3.6-6.5.9-1.7.1-3.6-.1-5.1.5-1.6.7-.9 1.7.5 2.1l.1.1c.1 1.4.8 2.4 2.1 2.8.8 1.6 1.6 3.2 2.4 4.7.2 2.1.6 4.1 2.4 5.5.2.9.4 1.7.6 2.6.5 2.8.5 5.6 2.1 8.1.1.6.2 1.2.3 1.7-.6 1.2-.3 2.3.6 3.3-.1 1.1-.1 2.1 0 3.1z" class="lfill-110505"/><path d="M319.6 378.5c3.4-2.5 7.4-2.9 11.4-3.5-3.7 1.5-7.1 3.9-11.4 3.5zm-9.9 2.2c2.5-1.8 5.4-1.9 8.3-1.9-2.4 2-5.3 2.2-8.3 1.9zm-1.4 27.3c-1.7-2.4-1.7-5.3-2.1-8.1 2.1 2.3 2.9 5 2.1 8.1zm29.3-35.6c1.9-1.7 4-2.9 6.6-2.9-1.8 1.9-3.9 3.1-6.6 2.9zm-38.9 11.8c-1.5-.4-2.1-1.4-.5-2.1 1.5-.6 3.4-.4 5.1-.5-1.1 1.7-4 .2-4.6 2.6zm6.9 13.1c-1.8-1.4-2.2-3.4-2.4-5.5 2.1 1.3 2.2 3.4 2.4 5.5zm3.6 15.7c-.9-1-1.1-2-.6-3.3 1.2.9 1.6 2 .6 3.3zm-109.5 48.7c.8-1.4 1.9-1.4 3.3-.9-.9 1-1.9 1.5-3.3.9zm101.2-74.6c-1.4-.4-2-1.4-2.1-2.8 1.5.3 2.2 1.3 2.1 2.8zm45.7-18.7c.4-1.1 1.4-1.4 2.4-1.3-.3 1.2-1 2-2.4 1.3zm-14 6.1c.5-1.1 1.3-1.5 2.5-1.2-.4 1.1-1.1 1.8-2.5 1.2z" class="lfill-989393"/></svg><svg xml:space="preserve" viewBox="0 0 512 512" id="socials__gh2" xmlns="http://www.w3.org/2000/svg"><path d="M256 32C132.3 32 32 134.8 32 261.7c0 101.5 64.2 187.5 153.2 217.9 11.2 2.1 15.3-5 15.3-11.1 0-5.5-.2-19.9-.3-39.1-62.3 13.9-75.5-30.8-75.5-30.8-10.2-26.5-24.9-33.6-24.9-33.6-20.3-14.3 1.5-14 1.5-14 22.5 1.6 34.3 23.7 34.3 23.7 20 35.1 52.4 25 65.2 19.1 2-14.8 7.8-25 14.2-30.7-49.7-5.8-102-25.5-102-113.5 0-25.1 8.7-45.6 23-61.6-2.3-5.8-10-29.2 2.2-60.8 0 0 18.8-6.2 61.6 23.5 17.9-5.1 37-7.6 56.1-7.7 19 .1 38.2 2.6 56.1 7.7 42.8-29.7 61.5-23.5 61.5-23.5 12.2 31.6 4.5 55 2.2 60.8 14.3 16.1 23 36.6 23 61.6 0 88.2-52.4 107.6-102.3 113.3 8 7.1 15.2 21.1 15.2 42.5 0 30.7-.3 55.5-.3 63 0 6.1 4 13.3 15.4 11C415.9 449.1 480 363.1 480 261.7 480 134.8 379.7 32 256 32z"/></svg><svg viewBox="0 0 512 512" xml:space="preserve" id="socials__tg" xmlns="http://www.w3.org/2000/svg"><path d="m484.689 98.231-69.417 327.37c-5.237 23.105-18.895 28.854-38.304 17.972L271.2 365.631l-51.034 49.086c-5.646 5.647-10.371 10.372-21.256 10.372l7.598-107.722L402.539 140.23c8.523-7.598-1.848-11.809-13.247-4.21L146.95 288.614 42.619 255.96c-22.694-7.086-23.104-22.695 4.723-33.579L455.423 65.166c18.893-7.085 35.427 4.209 29.266 33.065z" class="nfill-20a0e1"/></svg><svg viewBox="0 0 512 512" id="socials__vk" xmlns="http://www.w3.org/2000/svg"><path d="M484.7 132c3.56-11.28 0-19.48-15.75-19.48h-52.37c-13.21 0-19.31 7.18-22.87 14.86 0 0-26.94 65.6-64.56 108.13-12.2 12.3-17.79 16.4-24.4 16.4-3.56 0-8.14-4.1-8.14-15.37V131.47c0-13.32-4.06-19.47-15.25-19.47H199c-8.14 0-13.22 6.15-13.22 12.3 0 12.81 18.81 15.89 20.84 51.76V254c0 16.91-3 20-9.66 20-17.79 0-61-66.11-86.92-141.44C105 117.64 99.88 112 86.66 112H33.79C18.54 112 16 119.17 16 126.86c0 13.84 17.79 83.53 82.86 175.77 43.21 63 104.72 96.86 160.13 96.86 33.56 0 37.62-7.69 37.62-20.5v-47.66c0-15.37 3.05-17.93 13.73-17.93 7.62 0 21.35 4.09 52.36 34.33C398.28 383.6 404.38 400 424.21 400h52.36c15.25 0 22.37-7.69 18.3-22.55-4.57-14.86-21.86-36.38-44.23-62-12.2-14.34-30.5-30.23-36.09-37.92-7.62-10.25-5.59-14.35 0-23.57-.51 0 63.55-91.22 70.15-122" fill-rule="evenodd" class="ofill-000000"/></svg><svg viewBox="0 0 512 512" xml:space="preserve" id="socials__wa" xmlns="http://www.w3.org/2000/svg"><path d="M373.295 307.064c-6.37-3.188-37.687-18.596-43.526-20.724-5.838-2.126-10.084-3.187-14.331 3.188-4.246 6.376-16.454 20.725-20.17 24.976-3.715 4.251-7.431 4.785-13.8 1.594-6.37-3.187-26.895-9.913-51.225-31.616-18.935-16.89-31.72-37.749-35.435-44.126-3.716-6.377-.397-9.824 2.792-13 2.867-2.854 6.371-7.44 9.555-11.16 3.186-3.718 4.247-6.377 6.37-10.626 2.123-4.252 1.062-7.971-.532-11.159-1.591-3.188-14.33-34.542-19.638-47.298-5.171-12.419-10.422-10.737-14.332-10.934-3.711-.184-7.963-.223-12.208-.223-4.246 0-11.148 1.594-16.987 7.969-5.838 6.377-22.293 21.789-22.293 53.14 0 31.355 22.824 61.642 26.009 65.894 3.185 4.252 44.916 68.59 108.816 96.181 15.196 6.564 27.062 10.483 36.312 13.418 15.259 4.849 29.145 4.165 40.121 2.524 12.238-1.827 37.686-15.408 42.995-30.286 5.307-14.882 5.307-27.635 3.715-30.292-1.592-2.657-5.838-4.251-12.208-7.44M257.071 465.757h-.086c-38.022-.015-75.313-10.23-107.845-29.535l-7.738-4.592-80.194 21.037 21.405-78.19-5.037-8.017c-21.211-33.735-32.414-72.726-32.397-112.763.047-116.825 95.1-211.87 211.976-211.87 56.595.019 109.795 22.088 149.801 62.139 40.005 40.05 62.023 93.286 62.001 149.902-.048 116.834-95.1 211.889-211.886 211.889M437.403 73.533C389.272 25.347 325.265-1.202 257.068-1.23 116.554-1.23 2.193 113.124 2.136 253.681c-.018 44.932 11.72 88.786 34.03 127.448L0 513.231l135.141-35.45c37.236 20.31 79.159 31.015 121.826 31.029h.105c140.499 0 254.87-114.366 254.928-254.925.026-68.117-26.467-132.166-74.597-180.352"/></svg></svg>